<?xml version="1.0" standalone="no"?>
<!DOCTYPE svg PUBLIC "-//W3C//DTD SVG 20010904//EN"
 "http://www.w3.org/TR/2001/REC-SVG-20010904/DTD/svg10.dtd">
<svg version="1.0" xmlns="http://www.w3.org/2000/svg"
 width="450.000000pt" height="450.000000pt" viewBox="0 0 450.000000 450.000000"
 preserveAspectRatio="xMidYMid meet">
<metadata>
Created by potrace 1.11, written by Peter Selinger 2001-2013
</metadata>
<g transform="translate(0.000000,450.000000) scale(0.100000,-0.100000)"
fill="#000000" stroke="none">
<path d="M2110 3631 c-123 -6 -138 -8 -168 -31 -41 -31 -89 -125 -104 -207
-11 -61 -12 -62 -49 -68 -44 -8 -62 -25 -57 -57 3 -24 9 -25 66 -13 l32 8 -1
-264 0 -264 -30 60 c-16 33 -67 141 -113 240 l-84 180 44 9 c37 8 44 13 44 32
0 33 -33 48 -72 35 -43 -15 -42 -16 -73 32 -68 102 -178 169 -250 151 -45 -11
-318 -142 -348 -166 -16 -13 -34 -41 -42 -63 -18 -51 -19 -156 -1 -221 l13
-51 -29 -19 c-41 -26 -51 -49 -36 -74 16 -26 26 -25 63 5 l30 25 66 -138 c36
-75 62 -138 58 -140 -4 -2 -66 23 -138 54 l-130 57 29 35 c31 38 31 46 -1 63
-18 9 -26 5 -57 -29 l-37 -40 -70 15 c-87 18 -162 12 -216 -19 -35 -19 -48
-37 -84 -113 -73 -151 -115 -262 -115 -300 0 -66 51 -141 140 -206 58 -42 60
-45 54 -79 -4 -19 -8 -37 -10 -39 -10 -11 20 -41 41 -41 21 0 26 6 31 40 4 22
10 40 14 40 4 0 126 -52 271 -115 145 -63 267 -115 270 -115 3 0 34 36 68 80
132 171 373 338 606 420 161 57 292 81 475 87 144 5 167 8 183 24 9 10 17 21
17 24 -1 3 15 40 36 83 20 42 47 101 60 130 14 29 28 51 32 48 13 -8 15 27 17
281 1 134 4 245 7 248 3 3 18 1 33 -5 39 -15 57 -6 53 27 -2 24 -10 30 -49 42
-45 13 -47 15 -59 70 -38 168 -119 245 -255 239 -22 -1 -101 -4 -175 -7z m-30
-44 c0 -8 -8 -21 -17 -29 -31 -27 -125 -70 -134 -61 -14 14 29 73 64 88 42 18
87 19 87 2z m336 -21 c33 -33 45 -66 24 -66 -18 0 -116 47 -133 64 -27 28 -20
36 29 36 39 0 51 -5 80 -34z m-1038 -146 c17 -11 32 -24 32 -29 0 -26 -148
-22 -171 5 -9 11 -5 17 22 29 47 20 78 18 117 -5z m-341 -146 c-8 -16 -33 -49
-55 -74 -36 -40 -41 -43 -48 -26 -14 36 17 98 61 123 47 26 63 17 42 -23z
m-487 -533 c0 -14 -95 -98 -119 -106 -31 -9 -36 -1 -22 34 13 31 46 65 71 74
24 9 70 8 70 -2z m-202 -392 c5 -83 -6 -102 -37 -63 -24 30 -28 97 -9 139 20
44 42 8 46 -76z"/>
<path d="M3053 3483 c20 -2 37 -8 37 -12 0 -13 36 -20 51 -10 12 7 11 9 -1 10
-8 1 -20 1 -27 0 -6 -1 -14 3 -18 9 -3 5 -23 9 -43 8 l-37 -1 38 -4z"/>
<path d="M2934 3438 l-19 -23 23 19 c21 18 27 26 19 26 -2 0 -12 -10 -23 -22z"/>
<path d="M2958 3433 c-19 -23 -20 -53 0 -46 11 5 11 7 0 15 -10 7 -9 11 6 23
11 8 17 17 14 20 -2 3 -12 -3 -20 -12z"/>
<path d="M3220 3420 c8 -5 20 -10 25 -10 6 0 3 5 -5 10 -8 5 -19 10 -25 10 -5
0 -3 -5 5 -10z"/>
<path d="M2900 3411 c0 -10 19 -25 25 -20 1 2 -3 10 -11 17 -8 7 -14 8 -14 3z"/>
<path d="M3125 3395 c-24 -12 -25 -13 -5 -8 14 4 36 7 49 6 18 -1 20 1 10 8
-18 11 -18 11 -54 -6z"/>
<path d="M3008 3383 c7 -3 16 -2 19 1 4 3 -2 6 -13 5 -11 0 -14 -3 -6 -6z"/>
<path d="M3058 3383 c7 -3 16 -2 19 1 4 3 -2 6 -13 5 -11 0 -14 -3 -6 -6z"/>
<path d="M3285 3380 c-3 -6 1 -7 9 -4 18 7 21 14 7 14 -6 0 -13 -4 -16 -10z"/>
<path d="M3318 3363 c6 -2 18 -2 25 0 6 3 1 5 -13 5 -14 0 -19 -2 -12 -5z"/>
<path d="M2866 3333 c-6 -14 -5 -15 5 -6 7 7 10 15 7 18 -3 3 -9 -2 -12 -12z"/>
<path d="M3393 3337 c10 -8 14 -17 10 -18 -4 -2 2 -14 15 -26 12 -12 22 -18
22 -13 0 5 -7 15 -15 23 -8 8 -12 17 -9 20 3 3 -5 10 -18 17 -21 10 -21 10 -5
-3z"/>
<path d="M3291 3314 c0 -11 3 -14 6 -6 3 7 2 16 -1 19 -3 4 -6 -2 -5 -13z"/>
<path d="M2758 3283 c7 -3 16 -2 19 1 4 3 -2 6 -13 5 -11 0 -14 -3 -6 -6z"/>
<path d="M2715 3270 c27 -12 43 -12 25 0 -8 5 -22 9 -30 9 -10 0 -8 -3 5 -9z"/>
<path d="M2866 3272 c-12 -20 -46 -196 -41 -212 3 -11 27 -25 58 -35 55 -17
272 -124 316 -154 28 -20 84 -34 75 -19 -3 5 9 26 28 46 111 126 112 137 23
192 -19 12 -35 26 -35 31 0 5 -3 8 -7 7 -5 -2 -64 25 -133 58 -69 34 -147 69
-173 78 -52 17 -103 21 -111 8z"/>
<path d="M3290 3274 c0 -3 7 -12 15 -20 16 -17 18 -14 9 10 -6 15 -24 23 -24
10z"/>
<path d="M2778 3263 c7 -3 16 -2 19 1 4 3 -2 6 -13 5 -11 0 -14 -3 -6 -6z"/>
<path d="M2811 3254 c0 -11 3 -14 6 -6 3 7 2 16 -1 19 -3 4 -6 -2 -5 -13z"/>
<path d="M3358 3239 c7 -9 10 -25 6 -35 -3 -11 -2 -15 3 -9 4 6 12 13 16 16 4
3 -3 14 -15 25 -15 12 -18 13 -10 3z"/>
<path d="M3450 3221 c0 -25 6 -27 13 -6 4 8 2 17 -3 20 -6 4 -10 -3 -10 -14z"/>
<path d="M3424 3161 c20 -22 26 -25 26 -13 0 4 -10 13 -22 21 -23 14 -23 14
-4 -8z"/>
<path d="M2743 3144 c0 -17 2 -22 7 -13 5 6 6 18 3 26 -8 19 -10 16 -10 -13z"/>
<path d="M3317 3129 c7 -7 15 -10 18 -7 3 3 -2 9 -12 12 -14 6 -15 5 -6 -5z"/>
<path d="M2680 2944 c-92 -190 -97 -204 -80 -204 6 0 9 -4 6 -9 -4 -5 4 -7 16
-3 14 3 19 2 14 -6 -4 -7 -1 -12 6 -12 7 0 46 68 86 152 l73 152 -12 53 c-7
29 -15 53 -18 53 -4 0 -45 -79 -91 -176z"/>
<path d="M3415 3020 c0 -21 3 -37 6 -34 8 4 6 60 -1 68 -3 2 -5 -13 -5 -34z"/>
<path d="M3456 3045 c-3 -9 -6 -24 -5 -33 0 -9 5 -4 10 12 9 32 6 48 -5 21z"/>
<path d="M3453 2972 c4 -6 22 -21 39 -34 17 -12 28 -17 25 -10 -4 6 -22 21
-39 34 -17 12 -28 17 -25 10z"/>
<path d="M3459 2931 c7 -5 11 -14 7 -19 -4 -6 4 -16 16 -22 22 -11 22 -10 4 4
-12 10 -15 16 -7 16 11 0 11 3 1 15 -7 8 -18 15 -24 15 -6 0 -5 -4 3 -9z"/>
<path d="M3270 2824 c-42 -23 -49 -33 -117 -171 -40 -80 -71 -149 -68 -151 3
-3 30 12 60 32 52 34 60 45 116 159 33 67 65 127 71 132 8 7 9 6 3 -4 -6 -10
-4 -12 4 -7 9 6 9 11 0 22 -14 17 -13 17 -69 -12z"/>
<path d="M3594 2688 c-41 -39 -74 -79 -74 -88 0 -10 15 -37 33 -61 40 -52 100
-155 152 -259 21 -41 42 -78 47 -81 11 -7 162 32 197 50 11 7 21 20 21 31 0
43 -94 220 -201 381 -50 75 -73 99 -96 99 -3 0 -38 -32 -79 -72z"/>
<path d="M2513 2608 c-88 -172 -88 -176 -8 -132 41 24 52 37 91 117 24 50 43
91 42 92 -2 1 -14 9 -28 18 -13 9 -28 17 -32 17 -4 0 -34 -51 -65 -112z"/>
<path d="M3390 2621 c-52 -32 -128 -77 -167 -100 -40 -23 -73 -46 -73 -50 0
-5 8 -19 19 -32 l18 -23 119 71 c65 39 129 75 140 81 17 9 54 84 54 109 0 9
-23 -3 -110 -56z"/>
<path d="M2432 2500 c-7 -11 -8 -20 -3 -20 9 0 24 30 18 36 -1 2 -8 -6 -15
-16z"/>
<path d="M2480 2445 c-10 -12 -9 -15 4 -15 10 0 15 4 12 9 -4 5 0 12 6 14 8 4
9 6 2 6 -6 1 -17 -6 -24 -14z"/>
<path d="M3010 2399 c-58 -33 -109 -64 -113 -68 -5 -5 10 -15 32 -24 l39 -16
89 50 c48 28 90 53 92 55 2 2 -5 17 -15 33 l-19 30 -105 -60z"/>
<path d="M2516 2435 c-3 -10 8 -16 40 -21 52 -7 71 1 25 11 -17 4 -29 10 -27
14 3 4 -4 7 -14 8 -10 1 -21 -5 -24 -12z"/>
<path d="M3570 2085 c-69 -41 -129 -76 -134 -78 -12 -4 12 -67 25 -67 4 0 60
32 124 70 64 39 118 70 120 70 3 0 28 14 57 32 49 31 51 33 28 39 -64 18 -93
9 -220 -66z"/>
<path d="M2035 2123 c-16 -2 -49 -6 -72 -9 l-43 -5 0 -291 0 -291 38 7 c20 3
74 6 120 6 l82 0 0 60 0 60 -50 0 -51 0 3 63 3 62 43 3 42 3 0 55 0 54 -45 0
-45 0 0 55 0 55 45 0 45 0 0 60 0 60 -42 -1 c-24 -1 -56 -4 -73 -6z"/>
<path d="M2202 1838 l3 -293 57 -3 57 -3 3 128 3 128 34 -127 35 -126 59 -4
c34 -2 61 1 63 7 3 6 3 136 2 290 l-3 280 -57 3 -58 3 -1 -123 0 -123 -38 125
-38 125 -62 3 -61 3 2 -293z"/>
<path d="M2552 2053 c3 -58 3 -58 38 -63 l35 -5 3 -225 c1 -123 6 -227 10
-231 4 -4 35 -10 69 -13 l63 -7 2 223 c2 141 7 223 13 222 6 -1 25 -4 43 -8
l33 -6 -3 58 -3 57 -102 21 c-56 12 -125 24 -153 28 l-51 7 3 -58z"/>
<path d="M1640 2057 l-85 -22 -3 -274 -2 -273 56 7 c89 11 84 2 84 141 0 117
1 124 20 124 18 0 20 -8 22 -122 l3 -123 45 3 c84 6 80 -1 80 136 0 106 -2
125 -18 139 -10 10 -24 17 -31 17 -7 0 1 13 18 29 29 27 31 33 31 101 0 74
-16 123 -45 134 -29 11 -88 5 -175 -17z m90 -142 c0 -49 -9 -65 -36 -65 -6 0
-5 116 2 123 3 3 12 3 20 0 10 -3 14 -22 14 -58z"/>
<path d="M2045 1230 c-68 -33 -78 -63 -83 -230 -2 -80 1 -177 6 -215 10 -60
16 -74 46 -102 49 -46 127 -54 193 -22 61 31 80 66 85 154 l3 70 -70 0 -70 0
-5 -69 c-5 -75 -23 -97 -40 -51 -11 28 -14 325 -4 363 4 13 14 22 25 22 17 0
19 -8 19 -79 l0 -79 71 -4 c52 -2 73 1 77 10 8 22 -15 171 -31 196 -36 55
-147 73 -222 36z"/>
<path d="M2386 1229 c-4 -12 -61 -466 -69 -549 -2 -25 -1 -25 68 -25 l70 0 3
30 c5 63 12 75 37 75 22 0 24 -4 27 -52 l3 -53 70 0 c69 0 70 0 68 25 -5 48
-74 544 -76 547 -2 1 -47 5 -100 9 -78 6 -97 4 -101 -7z m119 -266 c7 -102 6
-103 -15 -103 -22 0 -22 2 -15 91 6 84 13 125 20 117 1 -2 6 -49 10 -105z"/>
<path d="M1617 1209 c-38 -4 -71 -9 -73 -12 -4 -4 -63 -455 -67 -512 l-2 -30
70 0 70 0 3 48 c3 42 6 47 26 47 27 0 36 -17 36 -66 l0 -34 70 0 c62 0 70 2
70 19 0 22 -67 494 -75 529 -6 24 -12 25 -128 11z m44 -289 c4 -62 3 -65 -20
-68 -22 -3 -23 -1 -18 30 3 18 9 67 13 108 7 70 8 72 15 35 4 -22 8 -69 10
-105z"/>
<path d="M2692 939 l3 -284 68 -3 67 -3 0 126 c0 118 1 125 20 125 18 0 20 -8
22 -122 l3 -123 63 -3 62 -3 0 119 c0 105 -2 121 -20 140 -12 12 -26 22 -33
22 -7 0 3 9 21 20 31 19 32 21 32 90 0 130 -41 163 -213 176 l-97 7 2 -284z
m173 111 c0 -44 -3 -55 -17 -58 -16 -3 -18 5 -18 58 0 53 2 61 18 58 14 -3 17
-14 17 -58z"/>
</g>
</svg>
